HIERARCHY
ROOT reference
{
  OFFSET 0 0 0
  CHANNELS 6 Xposition Yposition Zposition Zrotation Xrotation Yrotation
  JOINT Hips
  {
    OFFSET 11.4907 92.2339 141.071
    CHANNELS 6 Xposition Yposition Zposition Zrotation Xrotation Yrotation
    JOINT Spine
    {
      OFFSET 0 7.86299 0
      CHANNELS 6 Xposition Yposition Zposition Zrotation Xrotation Yrotation
      JOINT Spine1
      {
        OFFSET 0 22.6654 0
        CHANNELS 6 Xposition Yposition Zposition Zrotation Xrotation Yrotation
        JOINT Neck
        {
          OFFSET 0 22.5723 2.05203
          CHANNELS 6 Xposition Yposition Zposition Zrotation Xrotation Yrotation
          JOINT Head
          {
            OFFSET 0 13.4246 -1.9178
            CHANNELS 6 Xposition Yposition Zposition Zrotation Xrotation Yrotation
            End Site
            {
              OFFSET 0 23.9725 0
            }
          }
        }
        JOINT LeftShoulder
        {
          OFFSET 3.7941 20.1358 -0.319195
          CHANNELS 6 Xposition Yposition Zposition Zrotation Xrotation Yrotation
          JOINT LeftArm
          {
            OFFSET 12.7665 0 0
            CHANNELS 6 Xposition Yposition Zposition Zrotation Xrotation Yrotation
            JOINT LeftForeArm
            {
              OFFSET 28.396 0 0
              CHANNELS 6 Xposition Yposition Zposition Zrotation Xrotation Yrotation
              JOINT LeftHand
              {
                OFFSET 28.7929 0 0
                CHANNELS 6 Xposition Yposition Zposition Zrotation Xrotation Yrotation
                End Site
                {
                  OFFSET 14.3835 0 0
                }
              }
            }
          }
        }
        JOINT RightShoulder
        {
          OFFSET -3.85764 20.1358 -0.319195
          CHANNELS 6 Xposition Yposition Zposition Zrotation Xrotation Yrotation
          JOINT RightArm
          {
            OFFSET -12.7665 0 0
            CHANNELS 6 Xposition Yposition Zposition Zrotation Xrotation Yrotation
            JOINT RightForeArm
            {
              OFFSET -28.396 0 0
              CHANNELS 6 Xposition Yposition Zposition Zrotation Xrotation Yrotation
              JOINT RightHand
              {
                OFFSET -28.7929 0 0
                CHANNELS 6 Xposition Yposition Zposition Zrotation Xrotation Yrotation
                End Site
                {
                  OFFSET -14.3835 0 0
                }
              }
            }
          }
        }
      }
    }
    JOINT LeftUpLeg
    {
      OFFSET 9.58901 0 0
      CHANNELS 6 Xposition Yposition Zposition Zrotation Xrotation Yrotation
      JOINT LeftLeg
      {
        OFFSET 0 -41.7092 0
        CHANNELS 6 Xposition Yposition Zposition Zrotation Xrotation Yrotation
        JOINT LeftFoot
        {
          OFFSET 0 -41.5308 0
          CHANNELS 6 Xposition Yposition Zposition Zrotation Xrotation Yrotation
          JOINT LeftToeBase
          {
            OFFSET 0 -6.23286 14.3835
            CHANNELS 6 Xposition Yposition Zposition Zrotation Xrotation Yrotation
            End Site
            {
              OFFSET 0 0 3.8356
            }
          }
        }
      }
    }
    JOINT RightUpLeg
    {
      OFFSET -9.58901 0 0
      CHANNELS 6 Xposition Yposition Zposition Zrotation Xrotation Yrotation
      JOINT RightLeg
      {
        OFFSET 0 -41.7092 0
        CHANNELS 6 Xposition Yposition Zposition Zrotation Xrotation Yrotation
        JOINT RightFoot
        {
          OFFSET 0 -41.5308 0
          CHANNELS 6 Xposition Yposition Zposition Zrotation Xrotation Yrotation
          JOINT RightToeBase
          {
            OFFSET 0 -6.23286 14.3835
            CHANNELS 6 Xposition Yposition Zposition Zrotation Xrotation Yrotation
            End Site
            {
              OFFSET 0 0 3.8356
            }
          }
        }
      }
    }
  }
}
MOTION
Frames:	11
Frame Time:	0.004
0 0 0 0 0 -0 -16.5602 85.4437 -111.864 -2.47181 0.457539 6.63652 0 7.86299 -1.42109e-014 1.48112 -8.90332 -2.70049 0 22.6654 -1.42109e-014 3.41202 7.5132 -3.03988 -8.88178e-016 22.5723 2.05203 2.58092 15.0682 -2.72239 0 13.4246 -1.9178 1.25609 -6.14711 -2.61684 3.7941 20.1358 -0.319195 -17.8976 33.1585 4.5292 12.7665 7.10543e-015 -2.84217e-014 -19.5924 24.9163 -38.3764 28.396 -1.42109e-014 0 2.34575 -14.8011 -37.4701 28.7929 1.42109e-014 3.55271e-015 17.7737 -12.7206 8.59352 -3.85764 20.1358 -0.319195 12.6663 45.3049 8.01406 -12.7665 0 0 17.002 30.8738 33.7296 -28.396 -1.42109e-014 -1.42109e-014 2.68436 -14.3889 23.4906 -28.7929 -7.10543e-015 0 -0.718726 -14.8949 -5.58235 9.58901 0 -1.42109e-014 0.668844 14.421 -4.47828 -8.88178e-016 -41.7092 0 -2.82963 6.24733 -12.7793 -7.10543e-015 -41.5308 -1.42109e-014 10.4996 -15.9014 25.4066 0 -6.23286 14.3835 -1.98785e-016 -7.95139e-016 -1.59028e-015 -9.58901 0 -1.42109e-014 -1.08082 -23.0225 5.60219 0 -41.7092 1.42109e-014 3.49665 3.87054 -3.6821 0 -41.5308 -1.42109e-014 12.5803 5.6973 -14.9966 -3.55271e-015 -6.23286 14.3835 -2.78299e-015 1.59028e-015 1.98785e-016 
0 0 0 0 0 -0 -16.5596 85.4077 -111.4 -2.48949 0.375048 6.74839 0 7.86299 -1.42109e-014 1.50032 -8.8702 -2.76024 5.32907e-015 22.6654 1.42109e-014 3.42757 7.53176 -3.10227 -8.88178e-016 22.5723 2.05203 2.52803 14.9236 -2.64701 1.77636e-015 13.4246 -1.9178 1.39211 -5.97608 -2.51677 3.7941 20.1358 -0.319195 -17.9492 33.2449 4.53014 12.7665 0 0 -19.6739 24.8949 -38.3608 28.396 0 -1.42109e-014 2.22791 -14.7295 -37.2777 28.7929 7.10543e-015 0 17.8741 -12.6226 8.99093 -3.85764 20.1358 -0.319195 12.7507 45.3068 7.95875 -12.7665 -1.42109e-014 0 17.0107 30.8369 33.7014 -28.396 1.42109e-014 1.42109e-014 2.70582 -14.3685 23.4606 -28.7929 7.10543e-015 0 -0.883126 -14.87 -5.63847 9.58901 0 0 0.728766 14.5863 -4.18171 -8.88178e-016 -41.7092 0 -2.73007 6.65375 -12.9993 7.10543e-015 -41.5308 1.42109e-014 10.1627 -16.0838 25.2079 0 -6.23286 14.3835 -1.98785e-016 7.95139e-016 -1.59028e-015 -9.58901 0 0 -1.00509 -22.8834 5.74894 3.55271e-015 -41.7092 -1.42109e-014 3.52158 4.43477 -3.65371 0 -41.5308 0 12.0913 5.62212 -15.0255 0 -6.23286 14.3835 2.48481e-016 -1.59028e-015 5.96354e-016 
0 0 0 0 0 -0 -16.5592 85.3736 -110.934 -2.50607 0.313307 6.85315 -5.32907e-015 7.86299 1.42109e-014 1.51445 -8.86523 -2.81087 3.55271e-015 22.6654 0 3.45838 7.55538 -3.15669 0 22.5723 2.05203 2.55572 14.8715 -2.64189 3.55271e-015 13.4246 -1.9178 1.3141 -5.97212 -2.52815 3.7941 20.1358 -0.319195 -18.0093 33.286 4.54901 12.7665 7.10543e-015 0 -19.6858 25.0283 -38.3827 28.396 1.42109e-014 0 2.16303 -14.6991 -36.9727 28.7929 -7.10543e-015 -3.55271e-015 17.8217 -12.6278 8.96436 -3.85764 20.1358 -0.319195 12.8207 45.2801 7.90179 -12.7665 0 0 17.0406 30.8348 33.6628 -28.396 -1.42109e-014 0 2.69832 -14.3423 23.4448 -28.7929 0 -1.42109e-014 -0.818605 -14.8451 -5.62529 9.58901 0 0 0.809725 14.7892 -4.30086 0 -41.7092 0 -2.7213 6.90506 -12.7027 0 -41.5308 -1.42109e-014 9.77108 -16.2171 24.8855 0 -6.23286 14.3835 5.96354e-016 -7.95139e-016 -3.18055e-015 -9.58901 1.42109e-014 1.42109e-014 -0.968883 -22.7193 5.56453 3.55271e-015 -41.7092 1.42109e-014 3.5843 4.96625 -3.11481 3.55271e-015 -41.5308 0 12.3871 5.44851 -15.4186 0 -6.23286 14.3835 1.19271e-015 -1.59028e-015 -0 
0 0 0 0 0 -0 -16.5589 85.3382 -110.454 -2.52912 0.220015 6.98856 0 7.86299 0 1.52844 -8.84181 -2.88673 1.77636e-015 22.6654 0 3.49193 7.58568 -3.23644 0 22.5723 2.05203 2.61067 14.8586 -2.6297 -1.77636e-015 13.4246 -1.9178 1.17768 -6.0122 -2.54249 3.7941 20.1358 -0.319195 -18.0911 33.4415 4.65433 12.7665 -7.10543e-015 0 -19.6322 25.0514 -38.5259 28.396 0 0 2.03486 -14.611 -36.6834 28.7929 7.10543e-015 7.10543e-015 17.916 -12.549 9.15743 -3.85764 20.1358 -0.319195 12.885 45.2606 7.86058 -12.7665 1.42109e-014 0 17.0618 30.8406 33.6251 -28.396 -2.84217e-014 0 2.69905 -14.307 23.4503 -28.7929 1.42109e-014 0 -1.00103 -14.7994 -5.86675 9.58901 -1.42109e-014 1.42109e-014 0.998178 14.9 -4.2735 1.77636e-015 -41.7092 0 -2.86563 7.44208 -12.9261 7.10543e-015 -41.5308 0 9.57841 -16.3533 24.9194 0 -6.23286 14.3835 -2.20695e-032 -7.95139e-016 -1.59028e-015 -9.58901 -2.84217e-014 0 -0.804775 -22.4764 5.0813 3.55271e-015 -41.7092 0 3.3949 5.43297 -2.83327 0 -41.5308 -1.42109e-014 11.967 5.44626 -15.0582 0 -6.23286 14.3835 1.98785e-016 0 -5.96354e-016 
0 0 0 0 0 -0 -16.5611 85.308 -109.98 -2.52929 0.139438 7.08282 -1.77636e-015 7.86299 -1.42109e-014 1.50288 -8.7949 -2.94554 -5.32907e-015 22.6654 1.42109e-014 3.63142 7.55423 -3.30092 8.88178e-016 22.5723 2.05203 2.444 14.8376 -2.59405 4.44089e-015 13.4246 -1.9178 1.22217 -5.9761 -2.49542 3.7941 20.1358 -0.319195 -18.2548 33.4766 4.70603 12.7665 7.10543e-015 0 -19.6119 25.1786 -38.5337 28.396 0 0 1.82413 -14.6389 -36.3473 28.7929 -7.10543e-015 -3.55271e-015 17.9801 -12.6706 8.99927 -3.85764 20.1358 -0.319195 12.8051 45.3087 7.87542 -12.7665 0 2.84217e-014 17.1319 30.7567 33.6366 -28.396 -1.42109e-014 0 2.6656 -14.257 23.2735 -28.7929 7.10543e-015 1.42109e-014 -0.713409 -14.7547 -5.5729 9.58901 0 -1.42109e-014 1.03998 15.1106 -4.35336 -1.77636e-015 -41.7092 0 -2.81933 7.71454 -12.4238 0 -41.5308 -2.84217e-014 9.07735 -16.4794 24.404 0 -6.23286 14.3835 1.98785e-016 0 -0 -9.58901 0 -1.42109e-014 -0.778667 -22.3111 5.04709 0 -41.7092 0 3.50598 5.98912 -2.78529 5.32907e-015 -41.5308 1.42109e-014 11.6303 5.32003 -15.0009 3.55271e-015 -6.23286 14.3835 -9.93923e-017 0 -0 
0 0 0 0 0 -0 -16.5738 85.2707 -109.489 -2.53482 0.010814 7.22518 -1.77636e-015 7.86299 -1.42109e-014 1.47091 -8.73604 -3.02383 0 22.6654 1.42109e-014 3.71027 7.56784 -3.38163 8.88178e-016 22.5723 2.05203 2.40442 14.821 -2.57503 -2.66454e-015 13.4246 -1.9178 1.24467 -5.97994 -2.47106 3.7941 20.1358 -0.319195 -18.2242 33.6105 4.61986 12.7665 7.10543e-015 2.84217e-014 -19.7777 25.2633 -38.471 28.396 -7.10543e-015 0 1.76889 -14.5951 -36.0491 28.7929 7.10543e-015 0 17.869 -12.6561 9.01027 -3.85764 20.1358 -0.319195 12.8541 45.3019 7.80735 -12.7665 0 2.84217e-014 17.1901 30.7463 33.5663 -28.396 0 -1.42109e-014 2.72162 -14.2471 23.3478 -28.7929 7.10543e-015 0 -1.18386 -14.7332 -5.82366 9.58901 1.42109e-014 -1.42109e-014 1.15883 15.3182 -4.0971 -1.77636e-015 -41.7092 0 -2.80284 8.13774 -12.6392 7.10543e-015 -41.5308 0 8.75736 -16.5955 24.2139 3.55271e-015 -6.23286 14.3835 -1.98785e-016 -7.95139e-016 -1.59028e-015 -9.58901 0 0 -0.71291 -21.9796 5.14047 0 -41.7092 -1.42109e-014 3.55298 6.32638 -2.66078 3.55271e-015 -41.5308 -1.42109e-014 10.9413 4.97467 -15.0193 3.55271e-015 -6.23286 14.3835 4.22417e-016 1.59028e-015 -5.96354e-016 
0 0 0 0 0 -0 -16.5824 85.2438 -108.946 -2.55345 -0.124857 7.45812 0 7.86299 0 1.44332 -8.77233 -3.15326 0 22.6654 0 3.79393 7.66992 -3.51837 -1.77636e-015 22.5723 2.05203 2.39682 14.7916 -2.55537 -3.55271e-015 13.4246 -1.9178 1.16969 -5.96913 -2.46578 3.7941 20.1358 -0.319195 -18.2831 33.6428 4.66093 12.7665 7.10543e-015 2.84217e-014 -19.8357 25.4007 -38.4832 28.396 0 0 1.64049 -14.4904 -35.7342 28.7929 0 -7.10543e-015 17.8177 -12.5764 9.16556 -3.85764 20.1358 -0.319195 12.8829 45.3011 7.75193 -12.7665 1.42109e-014 0 17.2445 30.7087 33.5397 -28.396 0 0 2.67446 -14.1569 23.2636 -28.7929 0 0 -1.03018 -14.6403 -5.71464 9.58901 0 1.42109e-014 1.39298 15.5304 -4.54138 -8.88178e-016 -41.7092 0 -3.00449 8.56064 -12.3926 0 -41.5308 0 8.42908 -16.6332 24.123 -3.55271e-015 -6.23286 14.3835 -1.98785e-016 -7.95139e-016 3.18055e-015 -9.58901 1.42109e-014 1.42109e-014 -0.658408 -21.5688 4.87479 3.55271e-015 -41.7092 -2.84217e-014 3.70401 6.49613 -2.93546 -5.32907e-015 -41.5308 1.42109e-014 9.34275 4.72738 -14.493 0 -6.23286 14.3835 0 0 -0 
0 0 0 0 0 -0 -16.5844 85.2152 -108.445 -2.55414 -0.214777 7.59242 1.77636e-015 7.86299 -1.42109e-014 1.4692 -8.78161 -3.21269 0 22.6654 0 3.77858 7.70653 -3.58009 0 22.5723 2.05203 2.46209 14.8384 -2.56138 -3.55271e-015 13.4246 -1.9178 1.04368 -6.07805 -2.49526 3.7941 20.1358 -0.319195 -18.3275 33.7207 4.69398 12.7665 0 0 -19.7012 25.6556 -38.53 28.396 0 0 1.5025 -14.5327 -35.4449 28.7929 -1.42109e-014 7.10543e-015 17.8337 -12.6614 9.19018 -3.85764 20.1358 -0.319195 12.9524 45.2808 7.71607 -12.7665 0 2.84217e-014 17.347 30.6771 33.4642 -28.396 0 0 2.63052 -14.1226 23.2176 -28.7929 0 0 -0.951441 -14.5997 -5.74481 9.58901 -1.42109e-014 -1.42109e-014 1.51023 15.6678 -4.48876 0 -41.7092 0 -3.03372 9.04054 -12.4627 0 -41.5308 0 8.0451 -16.7053 23.953 0 -6.23286 14.3835 -2.20695e-032 7.95139e-016 1.59028e-015 -9.58901 0 0 -0.601965 -21.2945 4.33186 0 -41.7092 1.42109e-014 3.7814 6.53775 -2.60107 0 -41.5308 0 7.06699 4.88849 -13.5442 0 -6.23286 14.3835 -1.41634e-015 1.59028e-015 3.97569e-016 
0 0 0 0 0 -0 -16.6 85.1898 -107.954 -2.56308 -0.288205 7.7106 0 7.86299 0 1.44692 -8.76599 -3.26613 -1.77636e-015 22.6654 0 3.8443 7.69097 -3.63551 1.77636e-015 22.5723 2.05203 2.47856 14.865 -2.53283 -3.55271e-015 13.4246 -1.9178 0.993319 -6.12603 -2.47453 3.7941 20.1358 -0.319195 -18.3151 33.8035 4.5861 12.7665 7.10543e-015 0 -19.907 25.7288 -38.416 28.396 0 0 1.40758 -14.4061 -35.1088 28.7929 0 0 17.7311 -12.5613 9.28633 -3.85764 20.1358 -0.319195 13.0328 45.2729 7.62303 -12.7665 0 0 17.3615 30.6301 33.4634 -28.396 0 0 2.69121 -14.1109 23.107 -28.7929 7.10543e-015 1.42109e-014 -0.946398 -14.5984 -5.66881 9.58901 0 0 1.62026 15.7434 -4.28196 8.88178e-016 -41.7092 0 -3.00325 9.59554 -12.594 0 -41.5308 1.42109e-014 7.58511 -16.7951 23.6862 3.55271e-015 -6.23286 14.3835 -1.98785e-016 0 3.18055e-015 -9.58901 0 0 -0.540164 -20.9813 4.20421 0 -41.7092 0 3.82262 6.24714 -2.70008 -7.10543e-015 -41.5308 0 5.77735 5.15395 -12.6251 -3.55271e-015 -6.23286 14.3835 8.44835e-016 3.18055e-015 -4.96962e-016 
0 0 0 0 0 -0 -16.6167 85.1807 -107.441 -2.60712 -0.367759 7.82986 0 7.86299 -1.42109e-014 1.46809 -8.81272 -3.32784 -3.55271e-015 22.6654 1.42109e-014 3.91087 7.74644 -3.70583 0 22.5723 2.05203 2.42222 14.8959 -2.50085 -4.44089e-015 13.4246 -1.9178 1.01957 -6.22232 -2.43385 3.7941 20.1358 -0.319195 -18.415 33.7697 4.67474 12.7665 0 0 -19.7595 26.0849 -38.4776 28.396 0 -1.42109e-014 1.25003 -14.4271 -34.7539 28.7929 -7.10543e-015 0 17.7666 -12.6339 9.27679 -3.85764 20.1358 -0.319195 13.0523 45.284 7.57599 -12.7665 -1.42109e-014 2.84217e-014 17.4463 30.575 33.4242 -28.396 -1.42109e-014 0 2.70977 -14.0674 22.9856 -28.7929 -7.10543e-015 0 -1.05621 -14.5525 -5.43897 9.58901 1.42109e-014 -1.42109e-014 1.79527 15.8624 -4.29596 1.77636e-015 -41.7092 -1.42109e-014 -3.0541 10.0731 -12.592 3.55271e-015 -41.5308 0 7.19495 -16.7884 23.523 0 -6.23286 14.3835 -4.41391e-032 -1.59028e-015 -1.59028e-015 -9.58901 0 0 -0.434217 -20.5618 4.40758 0 -41.7092 0 3.83838 5.80441 -2.66682 0 -41.5308 0 5.48401 5.20742 -13.0177 -3.55271e-015 -6.23286 14.3835 1.88845e-015 0 -0 
0 0 0 0 0 -0 -16.6322 85.1758 -106.928 -2.64578 -0.436402 7.95307 1.77636e-015 7.86299 0 1.49459 -8.84679 -3.37135 -3.55271e-015 22.6654 1.42109e-014 3.94853 7.77989 -3.75553 2.66454e-015 22.5723 2.05203 2.43748 14.9096 -2.51002 1.77636e-015 13.4246 -1.9178 0.969588 -6.31377 -2.4523 3.7941 20.1358 -0.319195 -18.4112 33.8921 4.64467 12.7665 1.42109e-014 0 -19.8025 26.2396 -38.4188 28.396 0 -1.42109e-014 1.07791 -14.357 -34.5353 28.7929 7.10543e-015 7.10543e-015 17.8357 -12.6042 9.32994 -3.85764 20.1358 -0.319195 13.1695 45.2094 7.46507 -12.7665 1.42109e-014 0 17.5414 30.5781 33.3143 -28.396 0 0 2.73368 -14.0044 23.0035 -28.7929 0 0 -1.10301 -14.4906 -5.65717 9.58901 1.42109e-014 0 1.94833 15.9322 -4.21032 -2.66454e-015 -41.7092 0 -3.05137 10.6161 -12.6716 -3.55271e-015 -41.5308 0 7.2939 -16.7224 23.3401 0 -6.23286 14.3835 4.41391e-032 1.59028e-015 -1.59028e-015 -9.58901 1.42109e-014 0 -0.332044 -20.1699 4.22057 0 -41.7092 1.42109e-014 3.81414 5.47909 -2.30171 -1.77636e-015 -41.5308 1.42109e-014 5.76448 5.1879 -13.6465 0 -6.23286 14.3835 -9.19379e-016 0 -1.98785e-016 
